<svg width="88" height="36" viewBox="0 0 88 36" fill="none" xmlns="http://www.w3.org/2000/svg">
<g id="100x40-svg-full-logo-transparent">
<g id="Vector">
<path fill-rule="evenodd" clip-rule="evenodd" d="M16.9539 23.3953V10.3053H16.887L13.3634 23.3953H11.557L8.07806 10.3053H8.01116V23.3953H6.16016V7.58003H9.10391L12.4714 20.134H12.5606L15.8612 7.58003H18.9387V23.3953H16.9539ZM29.2642 23.3952L28.3721 19.6871H23.8004L22.8861 23.3952H20.8566L24.8263 7.57994H27.4801L31.3605 23.3952H29.2642ZM26.1643 9.45633H26.0751L24.068 18.1011H28.1045L26.1643 9.45633ZM39.7458 23.3952L37.0696 16.3364H35.2409V23.3952H33.2784V7.57994H37.3595C37.9394 7.57994 38.4857 7.65812 38.9987 7.81449C39.5116 7.97086 39.9613 8.22029 40.3479 8.56281C40.7344 8.90533 41.0392 9.35208 41.2622 9.90309C41.4853 10.4541 41.5968 11.1168 41.5968 11.8912C41.5968 12.5315 41.515 13.09 41.3514 13.5665C41.1879 14.0431 40.976 14.4489 40.7159 14.7839C40.4557 15.119 40.1695 15.3833 39.8573 15.5769C39.545 15.7705 39.2403 15.8971 38.9429 15.9567L41.8867 23.3952H39.7458ZM39.6119 11.9805C39.6119 11.4444 39.5376 11.0051 39.3889 10.6626C39.2403 10.3201 39.047 10.0446 38.8091 9.83607C38.5712 9.62759 38.2962 9.48239 37.984 9.40048C37.6717 9.31858 37.3595 9.27763 37.0473 9.27763H35.2409V14.7728H37.0919C37.8502 14.7728 38.4597 14.5308 38.9206 14.0468C39.3815 13.5628 39.6119 12.874 39.6119 11.9805ZM50.7179 23.3952L48.0418 16.3364H46.2131V23.3952H44.2506V7.57994H48.3317C48.9116 7.57994 49.4579 7.65812 49.9709 7.81449C50.4838 7.97086 50.9335 8.22029 51.3201 8.56281C51.7066 8.90533 52.0114 9.35208 52.2344 9.90309C52.4574 10.4541 52.5689 11.1168 52.5689 11.8912C52.5689 12.5315 52.4872 13.09 52.3236 13.5665C52.1601 14.0431 51.9482 14.4489 51.688 14.7839C51.4279 15.119 51.1417 15.3833 50.8295 15.5769C50.5172 15.7705 50.2125 15.8971 49.9151 15.9567L52.8589 23.3952H50.7179ZM50.5841 11.9805C50.5841 11.4444 50.5098 11.0051 50.3611 10.6626C50.2124 10.3201 50.0192 10.0446 49.7813 9.83607C49.5434 9.62759 49.2684 9.48239 48.9561 9.40048C48.6439 9.31858 48.3317 9.27763 48.0195 9.27763H46.2131V14.7728H48.0641C48.8223 14.7728 49.4319 14.5308 49.8928 14.0468C50.3537 13.5628 50.5841 12.874 50.5841 11.9805ZM65.3475 15.4652C65.3475 16.7013 65.2249 17.8293 64.9796 18.8494C64.7342 19.8695 64.3774 20.7444 63.9091 21.4741C63.4408 22.2039 62.8758 22.7697 62.2142 23.1718C61.5526 23.5739 60.7981 23.775 59.9506 23.775C59.1032 23.775 58.3449 23.5739 57.6759 23.1718C57.0069 22.7697 56.4382 22.2039 55.9699 21.4741C55.5015 20.7444 55.1447 19.8695 54.8994 18.8494C54.6541 17.8293 54.5314 16.7013 54.5314 15.4652C54.5314 14.2292 54.6504 13.1011 54.8883 12.081C55.1261 11.0609 55.4755 10.1898 55.9364 9.4675C56.3973 8.74523 56.966 8.18679 57.6425 7.79215C58.3189 7.39751 59.0883 7.2002 59.9506 7.2002C60.7981 7.2002 61.5526 7.39751 62.2142 7.79215C62.8758 8.18679 63.4408 8.74523 63.9091 9.4675C64.3774 10.1898 64.7342 11.0609 64.9796 12.081C65.2249 13.1011 65.3475 14.2292 65.3475 15.4652ZM63.2289 15.4652C63.2289 14.5717 63.1583 13.7303 63.0171 12.941C62.8758 12.1518 62.6677 11.4667 62.3926 10.886C62.1176 10.3052 61.7756 9.84724 61.3668 9.51217C60.9579 9.1771 60.4859 9.00957 59.9506 9.00957C59.4005 9.00957 58.9174 9.1771 58.5011 9.51217C58.0848 9.84724 57.7391 10.3052 57.4641 10.886C57.189 11.4667 56.9846 12.1518 56.8508 12.941C56.717 13.7303 56.6501 14.5717 56.6501 15.4652C56.6501 16.3588 56.717 17.2001 56.8508 17.9894C56.9846 18.7787 57.189 19.4637 57.4641 20.0445C57.7391 20.6253 58.0848 21.0832 58.5011 21.4183C58.9174 21.7534 59.4005 21.9209 59.9506 21.9209C60.4859 21.9209 60.9579 21.7534 61.3668 21.4183C61.7756 21.0832 62.1176 20.6253 62.3926 20.0445C62.6677 19.4637 62.8758 18.7787 63.0171 17.9894C63.1583 17.2001 63.2289 16.3588 63.2289 15.4652ZM79.6649 23.3952H77.1003L74.7363 10.5956H74.6917L72.3278 23.3952H69.7632L66.7302 7.57994H68.7819L71.1012 20.7593H71.1681L73.599 7.57994H75.9406L78.416 20.7593H78.4606L80.7577 7.57994H82.7202L79.6649 23.3952Z" fill="#62C8DF"/>
<path fill-rule="evenodd" clip-rule="evenodd" d="M18.1599 28.8002H6.81015V27.0949H18.1599V28.8002Z" fill="#62C8DF"/>
</g>
</g>
</svg>
